<?xml version="1.0" encoding="UTF-8"?><svg id="_レイヤー_2" xmlns="http://www.w3.org/2000/svg" viewBox="0 0 145.54 124.97"><defs><style>.cls-1{fill:#20c1f2;}</style></defs><g id="_レイヤー_1-2"><g><path class="cls-1" d="M1.82,93.23c1.05-1.08,2.4-1.62,4.03-1.62,2.18,0,3.77,.72,4.78,2.17,.56,.81,.85,1.63,.9,2.44h-2.74c-.17-.63-.4-1.1-.67-1.42-.49-.57-1.21-.85-2.17-.85s-1.74,.4-2.31,1.2c-.56,.8-.84,1.94-.84,3.41s.3,2.57,.89,3.3c.6,.73,1.35,1.1,2.26,1.1s1.65-.31,2.15-.94c.27-.34,.5-.84,.68-1.52h2.72c-.23,1.43-.83,2.59-1.8,3.48-.96,.89-2.2,1.34-3.7,1.34-1.86,0-3.33-.6-4.4-1.81-1.07-1.21-1.6-2.88-1.6-4.99,0-2.29,.61-4.05,1.82-5.29"/><path class="cls-1" d="M20.74,103.77c-.82,1.01-2.06,1.51-3.72,1.51s-2.9-.5-3.72-1.51c-.82-1.01-1.23-2.22-1.23-3.64s.41-2.61,1.23-3.63c.82-1.02,2.06-1.54,3.72-1.54s2.91,.51,3.72,1.54c.82,1.02,1.23,2.23,1.23,3.63s-.41,2.63-1.23,3.64m-2.03-1.4c.4-.53,.6-1.28,.6-2.24s-.2-1.72-.6-2.24c-.4-.52-.97-.78-1.71-.78s-1.31,.26-1.71,.78c-.4,.52-.6,1.27-.6,2.24s.2,1.72,.6,2.24c.4,.53,.97,.79,1.71,.79s1.31-.26,1.71-.79"/><path class="cls-1" d="M31.08,95.82c.63,.53,.95,1.39,.95,2.61v6.52h-2.59v-5.89c0-.51-.07-.9-.2-1.17-.25-.5-.72-.75-1.41-.75-.85,0-1.44,.36-1.76,1.09-.16,.39-.25,.88-.25,1.47v5.24h-2.53v-9.66h2.45v1.41c.32-.5,.63-.86,.92-1.07,.52-.39,1.18-.59,1.97-.59,1,0,1.81,.26,2.45,.79"/><path class="cls-1" d="M32.83,97.16v-1.8h1.35v-2.7h2.51v2.7h1.57v1.8h-1.57v5.12c0,.39,.05,.64,.15,.74,.1,.1,.41,.15,.93,.15,.08,0,.16,0,.24,0,.09,0,.17,0,.25-.02v1.89l-1.2,.05c-1.2,.04-2.01-.17-2.45-.62-.28-.29-.43-.74-.43-1.34v-5.96h-1.35Z"/><path class="cls-1" d="M45.44,95.47c.68,.3,1.23,.78,1.67,1.43,.4,.57,.65,1.24,.77,2,.07,.44,.1,1.09,.08,1.92h-7.05c.04,.97,.38,1.65,1.01,2.04,.39,.24,.85,.37,1.4,.37,.58,0,1.05-.15,1.41-.45,.2-.16,.37-.38,.52-.67h2.59c-.07,.57-.38,1.16-.94,1.75-.87,.94-2.08,1.41-3.64,1.41-1.29,0-2.43-.4-3.41-1.19-.98-.79-1.48-2.09-1.48-3.88,0-1.68,.44-2.96,1.33-3.86,.89-.89,2.04-1.34,3.46-1.34,.84,0,1.6,.15,2.28,.45m-3.79,2.19c-.36,.37-.58,.87-.67,1.5h4.36c-.05-.67-.27-1.18-.67-1.53-.4-.35-.9-.52-1.5-.52-.65,0-1.15,.18-1.51,.55"/><path class="cls-1" d="M60.93,95.31c.42,.16,.79,.45,1.13,.87,.27,.34,.46,.75,.55,1.24,.06,.32,.09,.8,.09,1.43l-.02,6.1h-2.59v-6.16c0-.37-.06-.67-.18-.91-.22-.45-.64-.68-1.24-.68-.7,0-1.18,.29-1.45,.87-.13,.31-.2,.68-.2,1.11v5.76h-2.55v-5.76c0-.57-.06-.99-.18-1.25-.21-.47-.63-.7-1.25-.7-.72,0-1.21,.23-1.46,.7-.14,.27-.2,.66-.2,1.19v5.83h-2.57v-9.66h2.46v1.41c.31-.5,.61-.86,.89-1.07,.49-.38,1.13-.57,1.91-.57,.74,0,1.34,.16,1.79,.49,.37,.3,.65,.69,.84,1.16,.33-.57,.74-.99,1.24-1.25,.52-.27,1.1-.4,1.74-.4,.43,0,.85,.08,1.26,.25"/><path class="cls-1" d="M72.45,96.31c.79,.83,1.18,2.06,1.18,3.68,0,1.71-.39,3-1.16,3.9-.77,.89-1.77,1.34-2.98,1.34-.77,0-1.42-.19-1.93-.58-.28-.21-.55-.52-.82-.93v5.05h-2.5v-13.49h2.42v1.43c.28-.42,.57-.75,.88-.99,.57-.43,1.24-.65,2.02-.65,1.14,0,2.1,.42,2.89,1.25m-1.94,1.82c-.34-.57-.9-.86-1.67-.86-.93,0-1.56,.44-1.91,1.31-.18,.46-.27,1.05-.27,1.76,0,1.12,.3,1.92,.91,2.37,.36,.27,.78,.4,1.27,.4,.71,0,1.25-.27,1.63-.82,.37-.55,.56-1.27,.56-2.18,0-.75-.17-1.41-.52-1.98"/><path class="cls-1" d="M82.89,103.77c-.82,1.01-2.06,1.51-3.72,1.51s-2.9-.5-3.72-1.51c-.82-1.01-1.23-2.22-1.23-3.64s.41-2.61,1.23-3.63c.82-1.02,2.06-1.54,3.72-1.54s2.91,.51,3.72,1.54c.82,1.02,1.23,2.23,1.23,3.63s-.41,2.63-1.23,3.64m-2.03-1.4c.4-.53,.6-1.28,.6-2.24s-.2-1.72-.6-2.24c-.4-.52-.96-.78-1.7-.78s-1.31,.26-1.71,.78c-.4,.52-.6,1.27-.6,2.24s.2,1.72,.6,2.24c.4,.53,.97,.79,1.71,.79s1.31-.26,1.7-.79"/><path class="cls-1" d="M90.62,95.04s.1,0,.22,.01v2.6c-.16-.02-.3-.03-.43-.04-.13,0-.23,0-.3,0-1.02,0-1.7,.33-2.05,.99-.2,.37-.29,.95-.29,1.72v4.63h-2.55v-9.68h2.42v1.69c.39-.65,.73-1.09,1.02-1.32,.47-.4,1.09-.6,1.85-.6,.05,0,.09,0,.12,0"/><path class="cls-1" d="M95.52,99.06c.47-.06,.81-.13,1.01-.22,.37-.15,.55-.39,.55-.72,0-.4-.14-.67-.42-.82-.28-.15-.69-.23-1.23-.23-.61,0-1.04,.15-1.29,.44-.18,.22-.3,.51-.36,.89h-2.44c.05-.85,.29-1.54,.71-2.09,.67-.85,1.83-1.28,3.46-1.28,1.06,0,2.01,.21,2.84,.63,.83,.42,1.24,1.21,1.24,2.38v4.44c0,.31,0,.68,.02,1.12,.02,.33,.07,.56,.15,.68,.08,.12,.21,.22,.37,.29v.37h-2.75c-.08-.19-.13-.38-.16-.55-.03-.17-.05-.37-.07-.59-.35,.38-.76,.7-1.22,.97-.55,.31-1.17,.47-1.86,.47-.88,0-1.61-.25-2.19-.75-.57-.5-.86-1.21-.86-2.13,0-1.19,.46-2.05,1.39-2.58,.51-.29,1.25-.5,2.24-.62l.87-.11Zm1.55,1.18c-.16,.1-.33,.18-.49,.25-.16,.06-.39,.12-.68,.17l-.58,.11c-.54,.1-.93,.21-1.17,.35-.4,.23-.6,.59-.6,1.08,0,.43,.12,.74,.37,.94,.24,.19,.54,.29,.89,.29,.55,0,1.06-.16,1.53-.48,.47-.32,.71-.9,.73-1.75v-.94Z"/><path class="cls-1" d="M106.36,95.04s.11,0,.22,.01v2.6c-.16-.02-.3-.03-.43-.04-.13,0-.23,0-.3,0-1.02,0-1.7,.33-2.05,.99-.19,.37-.29,.95-.29,1.72v4.63h-2.55v-9.68h2.42v1.69c.39-.65,.73-1.09,1.02-1.32,.47-.4,1.09-.6,1.85-.6,.05,0,.09,0,.12,0"/><path class="cls-1" d="M108.34,106.81l.32,.02c.25,.01,.49,0,.71-.03,.22-.03,.42-.1,.57-.2,.15-.1,.29-.31,.41-.63,.13-.32,.18-.52,.16-.59l-3.56-10.11h2.82l2.11,7.14,2-7.14h2.69l-3.32,9.53c-.64,1.83-1.15,2.97-1.52,3.41s-1.12,.66-2.24,.66c-.23,0-.41,0-.54,0-.14,0-.34-.01-.61-.03v-2.02Z"/><path class="cls-1" d="M125.26,91.86h3.1l4.63,13.09h-2.97l-.86-2.69h-4.82l-.89,2.69h-2.86l4.67-13.09Zm-.18,8.15h3.35l-1.65-5.15-1.7,5.15Z"/><path class="cls-1" d="M139.15,95.04s.1,0,.22,.01v2.6c-.16-.02-.3-.03-.43-.04-.12,0-.22,0-.3,0-1.02,0-1.7,.33-2.05,.99-.19,.37-.29,.95-.29,1.72v4.63h-2.55v-9.68h2.42v1.69c.39-.65,.73-1.09,1.02-1.32,.47-.4,1.09-.6,1.85-.6,.05,0,.09,0,.12,0"/><path class="cls-1" d="M140.11,97.16v-1.8h1.35v-2.7h2.51v2.7h1.57v1.8h-1.57v5.12c0,.39,.05,.64,.15,.74,.1,.1,.41,.15,.92,.15,.08,0,.16,0,.24,0,.09,0,.17,0,.25-.02v1.89l-1.2,.05c-1.2,.04-2.01-.17-2.45-.62-.28-.29-.43-.74-.43-1.34v-5.96h-1.35Z"/><polygon class="cls-1" points="117.9 26.24 104.52 26.24 92.11 45.97 77.49 25.56 93.71 0 80.91 0 71.2 17.26 61.74 0 48.51 0 64.73 25.99 50.36 45.73 38.23 26.24 25 26.24 43.16 55.62 25.96 79.23 38.83 79.23 49.08 65.2 57.75 79.23 71.2 79.23 56.31 55.3 71.2 34.93 85.94 55.79 71.2 79.23 84.79 79.23 93.1 65.93 102.66 79.47 116.11 79.47 99.3 56.01 117.9 26.24"/><polygon class="cls-1" points="26.46 111.57 35.8 111.57 35.8 113.87 29.18 113.87 29.18 116.88 34.98 116.88 34.98 119.15 29.18 119.15 29.18 124.64 26.46 124.64 26.46 111.57"/><path class="cls-1" d="M44.48,123.46c-.82,1.01-2.06,1.52-3.72,1.52s-2.9-.5-3.72-1.52c-.82-1.01-1.23-2.22-1.23-3.64s.41-2.61,1.23-3.63c.82-1.02,2.06-1.54,3.72-1.54s2.91,.51,3.72,1.54c.82,1.02,1.23,2.23,1.23,3.63s-.41,2.63-1.23,3.64m-2.03-1.4c.4-.53,.59-1.27,.59-2.24s-.2-1.72-.59-2.24c-.4-.52-.97-.79-1.7-.79s-1.31,.26-1.71,.79c-.4,.52-.6,1.27-.6,2.24s.2,1.72,.6,2.24c.4,.53,.97,.79,1.71,.79s1.31-.26,1.7-.79"/><path class="cls-1" d="M49.38,114.96v5.84c0,.55,.07,.97,.19,1.24,.23,.49,.68,.74,1.35,.74,.86,0,1.45-.35,1.77-1.05,.16-.38,.25-.88,.25-1.5v-5.27h2.57v9.68h-2.46v-1.37s-.08,.12-.18,.27c-.09,.15-.21,.28-.34,.39-.4,.35-.78,.6-1.15,.73-.37,.13-.8,.2-1.3,.2-1.43,0-2.39-.51-2.89-1.55-.28-.57-.42-1.41-.42-2.51v-5.84h2.59Z"/><path class="cls-1" d="M64.76,115.52c.63,.52,.95,1.39,.95,2.61v6.52h-2.6v-5.89c0-.51-.07-.9-.2-1.17-.25-.5-.72-.75-1.41-.75-.85,0-1.44,.36-1.75,1.09-.16,.39-.25,.88-.25,1.48v5.24h-2.53v-9.66h2.45v1.41c.32-.5,.63-.86,.92-1.07,.52-.39,1.18-.59,1.97-.59,1,0,1.81,.26,2.45,.79"/><path class="cls-1" d="M72.66,115.12c.46,.26,.83,.61,1.11,1.07v-4.62h2.57v13.08h-2.46v-1.34c-.36,.57-.77,.99-1.23,1.25-.46,.26-1.04,.39-1.72,.39-1.13,0-2.08-.46-2.86-1.37-.77-.92-1.16-2.09-1.16-3.52,0-1.65,.38-2.95,1.14-3.9,.76-.95,1.78-1.42,3.05-1.42,.59,0,1.11,.13,1.56,.39m.62,6.9c.37-.54,.56-1.22,.56-2.07,0-1.19-.3-2.03-.9-2.54-.37-.31-.79-.46-1.28-.46-.74,0-1.28,.28-1.63,.84-.35,.56-.52,1.25-.52,2.08,0,.89,.18,1.61,.53,2.15,.35,.54,.89,.8,1.6,.8s1.26-.27,1.64-.8"/><path class="cls-1" d="M81.96,118.75c.47-.06,.81-.13,1.01-.22,.36-.16,.54-.39,.54-.72,0-.4-.14-.67-.42-.82-.28-.15-.69-.23-1.23-.23-.61,0-1.03,.15-1.29,.44-.18,.22-.3,.52-.36,.89h-2.44c.05-.85,.29-1.54,.71-2.09,.67-.85,1.83-1.28,3.46-1.28,1.06,0,2.01,.21,2.84,.63,.83,.42,1.24,1.21,1.24,2.38v4.44c0,.31,0,.68,.02,1.12,.02,.33,.07,.56,.15,.68,.08,.12,.21,.22,.37,.29v.37h-2.75c-.08-.19-.13-.38-.16-.55-.03-.17-.05-.37-.07-.59-.35,.38-.76,.7-1.22,.97-.55,.31-1.17,.47-1.86,.47-.88,0-1.61-.25-2.18-.75-.57-.5-.86-1.21-.86-2.13,0-1.19,.46-2.05,1.39-2.59,.51-.29,1.25-.5,2.24-.62l.87-.11Zm1.55,1.18c-.16,.1-.33,.18-.49,.25-.16,.06-.39,.12-.68,.17l-.57,.11c-.54,.1-.93,.21-1.16,.35-.4,.23-.6,.59-.6,1.08,0,.43,.12,.75,.37,.94,.24,.19,.54,.29,.89,.29,.55,0,1.06-.16,1.53-.48,.47-.32,.71-.9,.73-1.75v-.94Z"/><path class="cls-1" d="M86.66,116.85v-1.8h1.35v-2.7h2.51v2.7h1.57v1.8h-1.57v5.12c0,.4,.05,.64,.15,.74,.1,.1,.41,.15,.92,.15,.08,0,.16,0,.24,0,.09,0,.17,0,.25-.01v1.89l-1.2,.04c-1.2,.04-2.01-.17-2.45-.62-.28-.29-.43-.74-.43-1.34v-5.96h-1.35Z"/><path class="cls-1" d="M95.61,113.8h-2.57v-2.34h2.57v2.34Zm-2.57,1.15h2.57v9.68h-2.57v-9.68Z"/><path class="cls-1" d="M105.59,123.46c-.82,1.01-2.06,1.52-3.72,1.52s-2.91-.5-3.72-1.52c-.82-1.01-1.23-2.22-1.23-3.64s.41-2.61,1.23-3.63c.82-1.02,2.06-1.54,3.72-1.54s2.91,.51,3.72,1.54c.82,1.02,1.23,2.23,1.23,3.63s-.41,2.63-1.23,3.64m-2.02-1.4c.4-.53,.6-1.27,.6-2.24s-.2-1.72-.6-2.24c-.4-.52-.97-.79-1.71-.79s-1.31,.26-1.71,.79c-.4,.52-.6,1.27-.6,2.24s.2,1.72,.6,2.24c.4,.53,.97,.79,1.71,.79s1.31-.26,1.71-.79"/><path class="cls-1" d="M115.62,115.52c.63,.52,.95,1.39,.95,2.61v6.52h-2.59v-5.89c0-.51-.07-.9-.2-1.17-.25-.5-.72-.75-1.41-.75-.85,0-1.44,.36-1.76,1.09-.16,.39-.25,.88-.25,1.48v5.24h-2.53v-9.66h2.45v1.41c.32-.5,.63-.86,.92-1.07,.52-.39,1.18-.59,1.97-.59,1,0,1.81,.26,2.45,.79"/></g></g></svg>
