<?xml version="1.0" encoding="UTF-8"?><svg id="_レイヤー_2" xmlns="http://www.w3.org/2000/svg" viewBox="0 0 1418.03 299.97"><defs><style>.cls-1{fill:#c8d8db;}.cls-2{fill:#20c1f2;}</style></defs><g id="_レイヤー_1-2"><g><g><g><path class="cls-1" d="M1199.87,190.89v-54.54h163.62V54.54s0-27.27,0-27.27h-190.89V245.43h27.27v-54.54Zm0-109.08v-27.27h136.35v54.54h-136.35v-27.27Z"/><polygon class="cls-1" points="1336.22 245.43 1308.95 245.43 1281.68 245.43 1254.41 245.43 1227.14 245.43 1199.87 245.43 1199.87 272.7 1227.14 272.7 1254.41 272.7 1281.68 272.7 1308.95 272.7 1336.22 272.7 1363.49 272.7 1390.76 272.7 1390.76 245.43 1363.49 245.43 1336.22 245.43"/><rect class="cls-1" x="1390.76" y="218.16" width="27.27" height="27.27"/></g><g><path class="cls-1" d="M981.71,109.08h-54.54V245.43h109.08V109.08h-54.54Zm27.27,54.54v54.54h-54.54v-81.81h54.54v27.27Z"/><polygon class="cls-1" points="845.36 218.16 845.36 190.89 845.36 163.62 872.63 163.62 872.63 136.35 845.36 136.35 845.36 109.08 845.36 81.81 845.36 54.54 845.36 27.27 818.09 27.27 818.09 54.54 790.83 54.54 763.56 54.54 763.56 81.81 790.83 81.81 818.09 81.81 818.09 109.08 818.09 136.35 790.83 136.35 790.83 163.62 818.09 163.62 818.09 190.89 790.83 190.89 790.83 218.16 818.09 218.16 818.09 245.43 818.09 272.7 818.09 299.97 845.36 299.97 845.36 272.7 845.36 245.43 872.63 245.43 872.63 218.16 845.36 218.16"/><rect class="cls-1" x="872.63" y="245.43" width="27.27" height="27.27"/><polygon class="cls-1" points="763.56 245.43 763.56 272.7 790.83 272.7 790.83 245.43 790.83 218.16 763.56 218.16 763.56 245.43"/><rect class="cls-1" x="845.36" width="27.27" height="27.27"/></g><path class="cls-1" d="M599.94,54.54h-136.35V245.43h190.89V54.54h-54.54Zm-109.08,54.54v-27.27h54.54v54.54h-54.54v-27.27Zm27.27,109.08h-27.27v-54.54h54.54v54.54h-27.27Zm109.08-27.27v27.27h-54.54v-54.54h54.54v27.27Zm0-81.81v27.27h-54.54v-54.54h54.54v27.27Z"/><g><polygon class="cls-1" points="54.55 27.27 54.55 54.54 81.81 54.54 81.81 81.81 81.81 109.08 54.55 109.08 54.55 136.35 81.81 136.35 81.81 163.62 54.55 163.62 54.55 190.89 81.81 190.89 81.81 218.16 81.81 245.43 81.81 272.7 81.81 299.97 109.08 299.97 109.08 272.7 109.08 245.43 109.08 218.16 136.35 218.16 136.35 190.89 109.08 190.89 109.08 163.62 109.08 136.35 136.35 136.35 136.35 109.08 109.08 109.08 109.08 81.81 109.08 54.54 109.08 27.27 81.81 27.27 54.55 27.27"/><polygon class="cls-1" points="27.28 218.16 27.28 245.43 54.55 245.43 54.55 218.16 54.55 190.89 27.28 190.89 27.28 218.16"/><rect class="cls-1" x="0" y="245.43" width="27.27" height="27.27"/><rect class="cls-1" x="109.08" width="27.27" height="27.27"/><polygon class="cls-1" points="218.16 54.54 190.89 54.54 163.62 54.54 163.62 81.81 163.62 109.08 190.89 109.08 190.89 81.81 218.16 81.81 218.16 54.54"/><rect class="cls-1" x="218.16" y="81.81" width="27.27" height="27.27"/><rect class="cls-1" x="272.7" y="81.81" width="27.27" height="27.27"/><polygon class="cls-1" points="163.62 163.62 163.62 190.89 163.62 218.16 163.62 245.43 163.62 272.7 190.89 272.7 190.89 245.43 190.89 218.16 190.89 190.89 190.89 163.62 190.89 136.35 163.62 136.35 163.62 163.62"/><path class="cls-1" d="M272.7,136.35h-54.54v163.62h27.27v-27.27h81.81V136.35h-54.54Zm27.27,109.08h-54.54v-27.27h54.54v27.27Zm0-54.54h-54.54v-27.27h54.54v27.27Z"/><polygon class="cls-1" points="272.7 54.54 272.7 27.27 245.43 27.27 218.16 27.27 218.16 54.54 245.43 54.54 272.7 54.54"/><rect class="cls-1" x="272.7" width="27.27" height="27.27"/></g></g><rect class="cls-2" x="845.36" width="27.27" height="27.27"/><rect class="cls-2" x="763.55" y="245.43" width="27.27" height="27.27"/><rect class="cls-2" x="463.58" y="190.89" width="27.27" height="27.27"/><rect class="cls-2" x="218.16" y="27.27" width="27.27" height="27.27"/><rect class="cls-2" x="109.08" width="27.27" height="27.27"/><rect class="cls-2" y="245.43" width="27.27" height="27.27"/><rect class="cls-2" x="1009.19" y="136.35" width="27.27" height="27.27"/><rect class="cls-2" x="1390.75" y="218.16" width="27.27" height="27.27"/></g></g></svg>