<?xml version="1.0" encoding="UTF-8"?><svg id="_レイヤー_1" xmlns="http://www.w3.org/2000/svg" xmlns:xlink="http://www.w3.org/1999/xlink" viewBox="0 0 50 57.8"><defs><style>.cls-1{fill:#fff;}.cls-2{fill:#00a0e9;filter:url(#drop-shadow-1);stroke:#0093e9;stroke-miterlimit:10;stroke-width:.5px;}</style><filter id="drop-shadow-1" filterUnits="userSpaceOnUse"><feOffset dx="0" dy="0"/><feGaussianBlur result="blur" stdDeviation="2"/><feFlood flood-color="#000" flood-opacity=".75"/><feComposite in2="blur" operator="in"/><feComposite in="SourceGraphic"/></filter></defs><path class="cls-2" d="m9.58,39.65c-8.55-8.55-8.63-22.26-.08-30.81s22.41-8.55,30.97,0,8.55,22.41,0,30.97l-15.48,15.55-15.4-15.71Z"/><path class="cls-1" d="m16.81,12.97h9.05c1.79,0,3.13.08,4.01.22.88.15,1.67.46,2.36.93.7.47,1.27,1.1,1.74,1.89.46.79.7,1.67.7,2.65,0,1.06-.29,2.03-.86,2.92-.57.89-1.35,1.55-2.33,1.99,1.38.4,2.44,1.09,3.18,2.05.74.97,1.11,2.11,1.11,3.42,0,1.03-.24,2.03-.72,3-.48.97-1.13,1.75-1.96,2.33-.83.58-1.85.94-3.07,1.07-.76.08-2.6.13-5.52.15h-7.71V12.97Zm4.57,3.77v5.24h3c1.78,0,2.89-.03,3.32-.08.78-.09,1.4-.36,1.85-.81.45-.45.67-1.04.67-1.77s-.19-1.27-.58-1.71c-.39-.44-.96-.7-1.72-.8-.45-.05-1.76-.08-3.91-.08h-2.63Zm0,9.01v6.06h4.23c1.65,0,2.69-.05,3.14-.14.68-.12,1.23-.42,1.66-.9.43-.48.64-1.12.64-1.92,0-.68-.17-1.26-.49-1.73-.33-.47-.81-.82-1.43-1.04-.62-.22-1.97-.32-4.05-.32h-3.69Z"/></svg>