<?xml version="1.0" encoding="UTF-8"?><svg id="_レイヤー_2" xmlns="http://www.w3.org/2000/svg" viewBox="0 0 508.84 424.04"><defs><style>.cls-1{fill:#c8d8db;}.cls-2{fill:#20c1f2;}</style></defs><g id="_レイヤー_1-2"><g><g><rect class="cls-1" x="0" y="84.81" width="28.27" height="28.27"/><rect class="cls-1" x="28.27" y="113.08" width="28.27" height="28.27"/><path class="cls-1" d="M197.88,84.81h-28.27v28.27h-56.54v28.27h56.54v28.27h-28.27v141.34h28.27v28.27h-28.27v28.27h28.27v28.27h28.27v-28.27h28.27v-28.27h-28.27v-28.27h28.27V169.62h-28.27v-28.27h28.27v-28.27h-28.27v-28.27Zm0,197.88h-28.27v-28.27h28.27v28.27Zm0-56.54h-28.27v-28.27h28.27v28.27Z"/><path class="cls-1" d="M310.96,84.81h-28.27V367.5h28.27v-56.54h28.27v84.81h28.27V84.81h-56.54Zm28.27,169.61v28.27h-28.27v-56.54h28.27v28.27Zm0-113.08v56.54h-28.27V113.08h28.27v28.27Z"/><rect class="cls-1" x="254.42" y="367.5" width="28.27" height="28.27"/><rect class="cls-1" x="0" y="197.89" width="28.27" height="28.27"/><rect class="cls-1" x="28.27" y="226.15" width="28.27" height="28.27"/><polygon class="cls-1" points="28.27 339.23 0 339.23 0 367.5 0 395.77 28.27 395.77 28.27 367.5 56.54 367.5 56.54 339.23 56.54 310.96 28.27 310.96 28.27 339.23"/><rect class="cls-1" x="56.54" y="282.69" width="28.27" height="28.27"/></g><g><rect class="cls-2" x="141.34" y="226.15" width="28.27" height="28.27"/><rect class="cls-2" x="197.88" y="197.89" width="28.27" height="28.27"/><rect class="cls-2" x="254.42" y="169.62" width="28.27" height="28.27"/><rect class="cls-2" x="254.42" y="0" width="28.27" height="28.27"/><rect class="cls-2" x="113.08" y="197.89" width="28.27" height="28.27"/><rect class="cls-2" x="226.15" y="84.81" width="28.27" height="28.27"/><rect class="cls-2" x="0" y="84.81" width="28.27" height="28.27"/><rect class="cls-2" x="197.88" y="56.54" width="28.27" height="28.27"/><rect class="cls-2" x="424.03" y="113.08" width="28.27" height="28.27"/><rect class="cls-2" x="282.69" y="197.89" width="28.27" height="28.27"/><rect class="cls-2" x="197.88" y="282.69" width="28.27" height="28.27"/><rect class="cls-2" x="113.08" y="367.5" width="28.27" height="28.27"/><rect class="cls-2" x="254.42" y="310.96" width="28.27" height="28.27"/><rect class="cls-2" x="339.23" y="197.89" width="28.27" height="28.27"/><rect class="cls-2" x="254.42" y="226.15" width="28.27" height="28.27"/><rect class="cls-2" x="310.96" y="254.42" width="28.27" height="28.27"/><rect class="cls-2" x="395.76" y="254.42" width="28.27" height="28.27"/><rect class="cls-2" x="424.03" y="282.69" width="28.27" height="28.27"/><rect class="cls-2" x="395.76" y="367.5" width="28.27" height="28.27"/><rect class="cls-2" x="480.57" y="395.77" width="28.27" height="28.27"/></g></g></g></svg>